<svg xmlns="http://www.w3.org/2000/svg" xmlns:xlink="http://www.w3.org/1999/xlink" width="34" height="31" viewBox="0 0 34 31"><defs><path id="bomwa" d="M1220 410h-9.5v2.5l2 2v.5h-13v-.5l2-2V410h-9.5a1.5 1.5 0 0 1-1.5-1.5v-20c0-.83.67-1.5 1.5-1.5h28c.83 0 1.5.67 1.5 1.5v20c0 .83-.67 1.5-1.5 1.5zm-.5-21h-27v17h27zm-16.5 7c.41 0 .79.17 1.06.44l.94.94 2.94-2.94a1.5 1.5 0 1 1 2.12 2.12l-4 4a1.5 1.5 0 0 1-2.12 0l-2-2A1.5 1.5 0 0 1 1203 396z"/></defs><g><g transform="translate(-1189 -385)"><use fill="#95e1d3" xlink:href="#bomwa"/></g></g></svg>